<svg xmlns="http://www.w3.org/2000/svg" width="64" height="64" viewBox="0 0 64 64" role="img" aria-label="QNCMS">
  <!-- 青柠切片（透明背景，精细） -->
  <g transform="translate(32,34)">
    <circle r="28" fill="#3f6212"/>
    <circle r="26.5" fill="#65a30d"/>
    <circle r="24" fill="#a3e635"/>
    <circle r="22" fill="#84cc16"/>
    <circle r="17" fill="#fefce8"/>
    <g fill="#e7f7b0">
      <path d="M0,0 L17,0 A17,17 0 0,1 12.02,-12.02 Z"/>
      <path d="M0,0 L0,-17 A17,17 0 0,1 -12.02,-12.02 Z"/>
      <path d="M0,0 L-17,0 A17,17 0 0,1 -12.02,12.02 Z"/>
      <path d="M0,0 L0,17 A17,17 0 0,1 12.02,12.02 Z"/>
    </g>
    <g stroke="#a3e635" stroke-width="1.6" stroke-linecap="round">
      <line x1="0" y1="-17" x2="0" y2="17"/>
      <line x1="-17" y1="0" x2="17" y2="0"/>
      <line x1="-12.02" y1="-12.02" x2="12.02" y2="12.02"/>
      <line x1="-12.02" y1="12.02" x2="12.02" y2="-12.02"/>
    </g>
    <circle r="2.6" fill="#a3e635"/>
    <ellipse cx="-6.5" cy="-8" rx="5" ry="3.2" fill="#ffffff" opacity="0.55" transform="rotate(-30 -6.5 -8)"/>
  </g>
  <!-- 叶片 -->
  <path d="M 47 16 C 55 5 63 8 60.5 15.5 C 58 22 50 22 47 16 Z" fill="#65a30d"/>
  <path d="M 53 13 C 55 10 58 10 58 12 C 58 14 55 15 53 13 Z" fill="#4d7c0f" opacity="0.5"/>
</svg>
